<svg width="24" height="22" viewBox="0 0 24 22" fill="none" xmlns="http://www.w3.org/2000/svg">
<rect width="24" height="22" stroke="black"/>
<path d="M3 5.04167C3 12.8887 9.93959 19.25 18.5 19.25C18.8862 19.25 19.2691 19.2371 19.6483 19.2116C20.0834 19.1823 20.3009 19.1678 20.499 19.0633C20.663 18.9767 20.8185 18.8233 20.9007 18.667C21 18.4784 21 18.2583 21 17.8182V15.2356C21 14.8655 21 14.6804 20.9335 14.5218C20.8749 14.3817 20.7795 14.2569 20.6559 14.1585C20.516 14.047 20.3262 13.9837 19.9468 13.8572L16.74 12.7883C16.2985 12.6412 16.0777 12.5676 15.8683 12.5801C15.6836 12.5911 15.5059 12.6489 15.3549 12.747C15.1837 12.8582 15.0629 13.0428 14.8212 13.4121L14 14.6667C11.3501 13.5666 9.2019 11.5948 8 9.16667L9.36863 8.41392C9.77145 8.19237 9.97286 8.08159 10.0942 7.92464C10.2012 7.78624 10.2643 7.62334 10.2763 7.45406C10.2899 7.26208 10.2096 7.05974 10.0491 6.65505L8.88299 3.71544C8.745 3.36761 8.67601 3.19369 8.55442 3.06543C8.44701 2.95212 8.31089 2.86472 8.15802 2.81091C7.98496 2.75 7.78308 2.75 7.37932 2.75H4.56201C4.08188 2.75 3.84181 2.75 3.63598 2.84098C3.4655 2.91634 3.29814 3.05893 3.2037 3.20928C3.08968 3.39081 3.07375 3.59023 3.04189 3.98909C3.01413 4.33662 3 4.68763 3 5.04167Z" stroke="#FF8D28" stroke-linecap="round" stroke-linejoin="round"/>
</svg>
